<svg xmlns="http://www.w3.org/2000/svg" viewBox="0 0 265 265"><defs><style>.cls-1{fill:#083c5d;}.cls-2{fill:#d9b310;}</style></defs><title>reEntry_f</title><g id="Layer_2" data-name="Layer 2"><g id="Layer_1-2" data-name="Layer 1"><circle class="cls-1" cx="132.5" cy="132.5" r="132.5"/><g id="iQTmt0.tif"><path class="cls-2" d="M73.49,134.07H85.87l-1.13,8.18c10.19,3.63,20.34,7.51,30.67,10.69,2.33.72,5.32-1,8-1.66C122,149,121,146.12,119,144.65c-6.44-4.84-13.55-8.72-19.82-13.78C89.46,123,82.66,113.37,82.3,99.21,81.92,83.8,75,72.79,58.45,69.08c7.28-4.57,13.2-9.58,19.93-12.17,8.63-3.33,16.66-.72,22.4,7.65a101.44,101.44,0,0,0,7.75,10.65,19.78,19.78,0,0,0,7.06,4.87c7,2.85,14.49,4.4,21,8,13.46,7.43,27.15,14.51,36.67,28.28,3,4.38,9.5,6.08,14.39,9l-.66,2.18-15.62,3.86c26.73,10.72,52.72,14.65,80.4,16.79-1.21,2.53-1.78,4.92-3.19,6.44-5.93,6.42-17.11,9.77-8.93,23.23C220.82,168.56,204,160.19,187.08,152c-3.83-1.87-8.13-2.77-11.74-5-14.89-9.18-28.92-5-42.71,2.74-2.36,1.32-4.15,3.81-7.46,6.95l63.18,22.83-2.94,10.17L170.64,186c4.89,6.34,7.26,11.07-.46,11.62l3.24,10.48-2.17,1.38-14.34-5.24,6.38-9.74L161.84,193l-8.13,7.26-2.19-9.92-1.34.11v11.44L132,195.5l10-7.78-3.36-6.4,9.58-4.24L81.29,152.89l-3.34,6.75c-3.87-2.55-11.23-.56-7.13-11.67l-4.35,5.85C58.62,164.4,48.94,168,37.92,164.44c-11.41-3.7-17.85-12.86-19.12-26.13-.36-3.77-2.22-7.38-3.39-11.06l-2.24.32,2.6-8.58,1.3,1.45c3.09-2.14,6.73-3.73,9.17-6.52,8.59-9.81,18.73-13,30.09-8.88,10.9,4,16.31,12.46,17,26.58C73.42,133,73.5,134.38,73.49,134.07Zm-41.68-12.4c3.77,5.36,2.95,9.51-1.72,12.85a6.43,6.43,0,0,0-2.37,4.65c.42,8.1,7.2,15.22,15.47,16.76,6.91,1.29,13.13-2.44,16.72-10C46,139,46,139,42.38,151.64c-8.56-2.38-9.58-6.29-4.63-14.11a26.6,26.6,0,0,0,3.73-11.76c.72-9.6,3.43-11.52,11.71-7.18-4.78,11.83-3.54,13.56,10.75,15,.79-9.5-2.31-15.73-9.42-19C46.06,110.76,39.49,112.71,31.81,121.67Z"/></g></g></g></svg>